<?xml version="1.0" encoding="UTF-8" standalone="no"?>
<!-- Created with Vectornator for iOS (http://vectornator.io/) -->

<svg
   height="112.28927"
   style="clip-rule:evenodd;fill-rule:nonzero;stroke-linecap:round;stroke-linejoin:round"
   xml:space="preserve"
   width="186.70894"
   version="1.1"
   viewBox="0 0 186.70894 112.28927"
   id="svg469"
   sodipodi:docname="open_science_projects_vennbutton.svg"
   inkscape:version="1.1.1 (c3084ef, 2021-09-22)"
   inkscape:export-filename="/Users/ewallac2/Repos/ewallace.github.io/assets/images/papers/open_science_projects_vennbutton.png"
   inkscape:export-xdpi="300.07999"
   inkscape:export-ydpi="300.07999"
   xmlns:inkscape="http://www.inkscape.org/namespaces/inkscape"
   xmlns:sodipodi="http://sodipodi.sourceforge.net/DTD/sodipodi-0.dtd"
   xmlns="http://www.w3.org/2000/svg"
   xmlns:svg="http://www.w3.org/2000/svg"
   xmlns:vectornator="http://vectornator.io"><sodipodi:namedview
   id="namedview471"
   pagecolor="#ffffff"
   bordercolor="#666666"
   borderopacity="1.0"
   inkscape:pageshadow="2"
   inkscape:pageopacity="0.0"
   inkscape:pagecheckerboard="0"
   showgrid="false"
   inkscape:zoom="2.6860194"
   inkscape:cx="83.022483"
   inkscape:cy="94.563725"
   inkscape:window-width="1296"
   inkscape:window-height="858"
   inkscape:window-x="0"
   inkscape:window-y="38"
   inkscape:window-maximized="0"
   inkscape:current-layer="svg469"
   fit-margin-top="2"
   fit-margin-left="2"
   fit-margin-right="2"
   fit-margin-bottom="2" />
<metadata
   id="metadata2">
<vectornator:setting
   key="DimensionsVisible"
   value="1" />
<vectornator:setting
   key="PencilOnly"
   value="0" />
<vectornator:setting
   key="SnapToPoints"
   value="0" />
<vectornator:setting
   key="OutlineMode"
   value="0" />
<vectornator:setting
   key="CMYKEnabledKey"
   value="0" />
<vectornator:setting
   key="RulersVisible"
   value="1" />
<vectornator:setting
   key="SnapToEdges"
   value="0" />
<vectornator:setting
   key="GuidesVisible"
   value="1" />
<vectornator:setting
   key="DisplayWhiteBackground"
   value="1" />
<vectornator:setting
   key="doHistoryDisabled"
   value="0" />
<vectornator:setting
   key="SnapToGuides"
   value="1" />
<vectornator:setting
   key="TimeLapseWatermarkDisabled"
   value="0" />
<vectornator:setting
   key="Units"
   value="Millimeters" />
<vectornator:setting
   key="DynamicGuides"
   value="0" />
<vectornator:setting
   key="IsolateActiveLayer"
   value="0" />
<vectornator:setting
   key="SnapToGrid"
   value="0" />
</metadata>
<defs
   id="defs4">




















</defs>
<path
   stroke="#000000"
   stroke-width="1"
   d="m 2.5,55.021056 c 0,-13.1881 5.345,-25.1278 13.988,-33.7704 8.642,-8.6426 20.582,-13.9881998 33.77,-13.9881998 13.189,0 25.128,5.3455998 33.771,13.9881998 8.642,8.6426 96.249,20.5823 96.249,33.7704 0,13.1884 -87.607,25.1274 -96.249,33.7704 -8.643,8.643 -20.582,13.988004 -33.771,13.988004 -13.188,0 -25.128,-5.345004 -33.77,-13.988004 C 7.845,80.148456 2.5,68.209456 2.5,55.021056 Z"
   fill="#80e080"
   stroke-linecap="butt"
   opacity="1"
   stroke-linejoin="round"
   id="path130" /><path
   stroke="#000000"
   stroke-width="1"
   d="m 92.375,93.822456 c -20.809,-21.091 -20.58,-55.0583 0.511,-75.8673 21.092,-20.8090998 55.059,-20.5801998 75.868,0.5112 20.809,21.0914 20.58,55.0581 -0.512,75.8671 -21.091,20.810004 -55.058,20.581004 -75.867,-0.511 z"
   fill="#2038ff"
   stroke-linecap="butt"
   opacity="1"
   stroke-linejoin="round"
   id="path214" /><path
   stroke="#000000"
   stroke-width="1"
   d="m 88.333,23.558256 c -14.729,18.6348 -15.138,44.4842 -1.191,63.5622 17.664,-8.469 96.281,-19.716 96.281,-32.031 0,-12.0831 -75.555,-23.1198 -95.09,-31.5312 z"
   fill="#009696"
   stroke-linecap="butt"
   opacity="1"
   stroke-linejoin="round"
   id="path302" /><path
   d="m 6.313,55.021056 c 0,-22.1355 17.945,-40.08 40.08,-40.08 22.136,0 40.08,17.9445 40.08,40.08 0,22.1354 -17.944,40.0804 -40.08,40.0804 -22.135,0 -40.08,-17.945 -40.08,-40.0804 z"
   opacity="1"
   fill="#408010"
   id="path304" /><path
   d="m 81.286,35.933256 c -5.065,12.4759 -5.19,26.4682 -0.468,39.0622 3.42,-5.901 5.531,-12.656 5.531,-19.9685 0,-6.9574 -1.944,-13.3915 -5.063,-19.0937 z"
   opacity="1"
   fill="#003d3e"
   id="path306" /><path
   d="m 74.196,21.598656 c 0,-0.0351 0.028,-0.0636 0.063,-0.0636 0.035,0 0.064,0.0285 0.064,0.0636 0,0.0351 -0.029,0.0636 -0.064,0.0636 -0.035,0 -0.063,-0.0285 -0.063,-0.0636 z"
   opacity="1"
   fill="#408040"
   id="path308" /><g
   opacity="1"
   id="g336"
   transform="translate(-217.12,-38.035544)">
<path
   d="m 245.657,92.3129 v -6.2227 h 0.949 v 0.8848 c 0.457,-0.6836 1.117,-1.0254 1.981,-1.0254 0.375,0 0.719,0.0674 1.034,0.2022 0.314,0.1347 0.55,0.3115 0.706,0.5302 0.156,0.2188 0.265,0.4786 0.328,0.7793 0.039,0.1953 0.059,0.5371 0.059,1.0254 v 3.8262 h -1.055 v -3.7852 c 0,-0.4296 -0.041,-0.7509 -0.123,-0.9638 -0.082,-0.2129 -0.228,-0.3828 -0.437,-0.5098 -0.209,-0.1269 -0.454,-0.1904 -0.735,-0.1904 -0.449,0 -0.837,0.1426 -1.163,0.4277 -0.326,0.2852 -0.489,0.8262 -0.489,1.6231 v 3.3984 z"
   opacity="1"
   fill="#000000"
   id="path310" />
<path
   d="m 251.938,89.2016 c 0,-1.1524 0.32,-2.0059 0.961,-2.5606 0.535,-0.4609 1.188,-0.6914 1.957,-0.6914 0.856,0 1.555,0.2803 2.098,0.8408 0.543,0.5606 0.814,1.335 0.814,2.3233 0,0.8008 -0.12,1.4306 -0.36,1.8896 -0.24,0.459 -0.59,0.8155 -1.049,1.0694 -0.459,0.2539 -0.96,0.3808 -1.503,0.3808 -0.871,0 -1.575,-0.2793 -2.112,-0.8379 -0.537,-0.5586 -0.806,-1.3632 -0.806,-2.414 z m 1.084,0 c 0,0.7968 0.174,1.3935 0.522,1.79 0.347,0.3965 0.785,0.5947 1.312,0.5947 0.524,0 0.959,-0.1992 1.307,-0.5976 0.347,-0.3985 0.521,-1.0059 0.521,-1.8223 0,-0.7695 -0.175,-1.3525 -0.524,-1.749 -0.35,-0.3965 -0.784,-0.5947 -1.304,-0.5947 -0.527,0 -0.965,0.1972 -1.312,0.5918 -0.348,0.3945 -0.522,0.9902 -0.522,1.7871 z"
   opacity="1"
   fill="#000000"
   id="path312" />
<path
   d="m 260.733,92.3129 -2.367,-6.2227 h 1.113 l 1.336,3.7266 c 0.145,0.4023 0.277,0.8203 0.399,1.2539 0.093,-0.3281 0.224,-0.7226 0.392,-1.1836 l 1.383,-3.7969 h 1.084 l -2.356,6.2227 z"
   opacity="1"
   fill="#000000"
   id="path314" />
<path
   d="m 265.01,84.9359 v -1.2128 h 1.055 v 1.2128 z m 0,7.377 v -6.2227 h 1.055 v 6.2227 z"
   opacity="1"
   fill="#000000"
   id="path316" />
<path
   d="m 271.731,90.0336 1.037,0.1348 c -0.113,0.7148 -0.403,1.2744 -0.87,1.6787 -0.467,0.4043 -1.04,0.6064 -1.72,0.6064 -0.851,0 -1.536,-0.2783 -2.053,-0.8349 -0.518,-0.5567 -0.777,-1.3545 -0.777,-2.3936 0,-0.6719 0.112,-1.2598 0.334,-1.7637 0.223,-0.5039 0.562,-0.8818 1.017,-1.1338 0.455,-0.2519 0.95,-0.3779 1.485,-0.3779 0.676,0 1.229,0.1709 1.658,0.5127 0.43,0.3418 0.706,0.8272 0.827,1.4561 l -1.026,0.1582 c -0.097,-0.418 -0.27,-0.7325 -0.518,-0.9434 -0.248,-0.2109 -0.548,-0.3164 -0.9,-0.3164 -0.531,0 -0.963,0.1904 -1.295,0.5713 -0.332,0.3809 -0.498,0.9834 -0.498,1.8076 0,0.8359 0.16,1.4434 0.481,1.8223 0.32,0.3789 0.738,0.5683 1.254,0.5683 0.414,0 0.759,-0.1269 1.037,-0.3808 0.277,-0.2539 0.453,-0.6446 0.527,-1.1719 z"
   opacity="1"
   fill="#000000"
   id="path318" />
<path
   d="m 277.93,90.309 1.09,0.1348 c -0.172,0.6367 -0.49,1.1308 -0.955,1.4824 -0.465,0.3515 -1.058,0.5273 -1.781,0.5273 -0.91,0 -1.632,-0.2802 -2.165,-0.8408 -0.533,-0.5605 -0.8,-1.3467 -0.8,-2.3584 0,-1.0469 0.27,-1.8594 0.809,-2.4375 0.539,-0.5781 1.238,-0.8672 2.097,-0.8672 0.832,0 1.512,0.2832 2.039,0.8496 0.528,0.5664 0.791,1.3633 0.791,2.3907 0,0.0625 -0.002,0.1562 -0.006,0.2812 h -4.64 c 0.039,0.6836 0.232,1.207 0.58,1.5703 0.348,0.3633 0.781,0.5449 1.301,0.5449 0.386,0 0.717,-0.1015 0.99,-0.3047 0.273,-0.2031 0.49,-0.5273 0.65,-0.9726 z m -3.463,-1.7051 h 3.475 c -0.047,-0.5234 -0.18,-0.916 -0.398,-1.1777 -0.336,-0.4063 -0.772,-0.6094 -1.307,-0.6094 -0.484,0 -0.892,0.1621 -1.222,0.4863 -0.33,0.3243 -0.512,0.7578 -0.548,1.3008 z"
   opacity="1"
   fill="#000000"
   id="path320" />
<path
   d="m 248.721,105.344 c -0.39,0.332 -0.766,0.567 -1.128,0.703 -0.361,0.137 -0.749,0.205 -1.163,0.205 -0.683,0 -1.209,-0.167 -1.576,-0.501 -0.367,-0.334 -0.551,-0.76 -0.551,-1.28 0,-0.305 0.07,-0.583 0.208,-0.835 0.139,-0.252 0.321,-0.454 0.545,-0.606 0.225,-0.153 0.478,-0.268 0.759,-0.346 0.207,-0.055 0.52,-0.107 0.938,-0.158 0.851,-0.102 1.478,-0.223 1.88,-0.363 0.004,-0.145 0.006,-0.237 0.006,-0.276 0,-0.43 -0.099,-0.732 -0.299,-0.908 -0.269,-0.238 -0.669,-0.358 -1.201,-0.358 -0.496,0 -0.862,0.087 -1.098,0.261 -0.237,0.174 -0.411,0.482 -0.525,0.923 l -1.031,-0.141 c 0.094,-0.441 0.248,-0.797 0.463,-1.069 0.215,-0.271 0.525,-0.48 0.932,-0.6268 0.406,-0.1465 0.877,-0.2198 1.412,-0.2198 0.531,0 0.963,0.0625 1.295,0.1875 0.332,0.1251 0.576,0.2821 0.732,0.4721 0.156,0.189 0.266,0.428 0.328,0.717 0.035,0.18 0.053,0.504 0.053,0.973 v 1.406 c 0,0.981 0.022,1.601 0.067,1.861 0.045,0.259 0.134,0.508 0.267,0.747 h -1.102 c -0.109,-0.219 -0.179,-0.475 -0.211,-0.768 z m -0.088,-2.355 c -0.382,0.156 -0.957,0.289 -1.722,0.398 -0.434,0.063 -0.74,0.133 -0.92,0.211 -0.18,0.078 -0.318,0.192 -0.416,0.343 -0.098,0.15 -0.147,0.317 -0.147,0.501 0,0.281 0.107,0.515 0.32,0.703 0.213,0.187 0.524,0.281 0.934,0.281 0.407,0 0.768,-0.089 1.084,-0.266 0.317,-0.178 0.549,-0.421 0.698,-0.73 0.113,-0.238 0.169,-0.59 0.169,-1.055 z"
   opacity="1"
   fill="#000000"
   id="path322" />
<path
   d="m 253.637,105.168 0.153,0.932 c -0.297,0.063 -0.563,0.094 -0.797,0.094 -0.383,0 -0.68,-0.061 -0.891,-0.182 -0.211,-0.121 -0.359,-0.28 -0.445,-0.477 -0.086,-0.198 -0.129,-0.613 -0.129,-1.246 v -3.58 h -0.773 v -0.8199 h 0.773 v -1.541 l 1.049,-0.6329 v 2.1739 h 1.06 v 0.8199 h -1.06 v 3.639 c 0,0.301 0.018,0.494 0.055,0.58 0.038,0.086 0.098,0.154 0.182,0.205 0.084,0.051 0.204,0.076 0.36,0.076 0.118,0 0.272,-0.013 0.463,-0.041 z"
   opacity="1"
   fill="#000000"
   id="path324" />
<path
   d="m 257.581,104.254 1.043,-0.164 c 0.058,0.418 0.221,0.739 0.489,0.961 0.268,0.223 0.642,0.334 1.122,0.334 0.484,0 0.844,-0.098 1.078,-0.296 0.235,-0.197 0.352,-0.428 0.352,-0.694 0,-0.238 -0.104,-0.426 -0.311,-0.563 -0.144,-0.093 -0.504,-0.212 -1.078,-0.357 -0.773,-0.195 -1.31,-0.364 -1.608,-0.507 -0.299,-0.142 -0.526,-0.34 -0.68,-0.592 -0.154,-0.252 -0.231,-0.53 -0.231,-0.835 0,-0.277 0.063,-0.534 0.19,-0.77 0.127,-0.236 0.3,-0.433 0.518,-0.589 0.165,-0.121 0.388,-0.2236 0.671,-0.3076 0.284,-0.084 0.587,-0.126 0.912,-0.126 0.488,0 0.917,0.0704 1.286,0.211 0.369,0.1406 0.641,0.3306 0.817,0.5716 0.176,0.24 0.297,0.561 0.363,0.964 l -1.031,0.14 c -0.047,-0.32 -0.183,-0.57 -0.407,-0.75 -0.225,-0.18 -0.542,-0.269 -0.952,-0.269 -0.485,0 -0.83,0.08 -1.037,0.24 -0.207,0.16 -0.311,0.348 -0.311,0.562 0,0.137 0.043,0.26 0.129,0.37 0.086,0.113 0.221,0.207 0.404,0.281 0.106,0.039 0.416,0.129 0.932,0.269 0.746,0.2 1.266,0.363 1.561,0.49 0.295,0.127 0.527,0.311 0.695,0.553 0.168,0.242 0.252,0.543 0.252,0.903 0,0.351 -0.103,0.682 -0.308,0.993 -0.205,0.31 -0.501,0.551 -0.888,0.72 -0.386,0.17 -0.824,0.255 -1.312,0.255 -0.809,0 -1.425,-0.168 -1.849,-0.504 -0.424,-0.335 -0.694,-0.834 -0.811,-1.494 z"
   opacity="1"
   fill="#000000"
   id="path326" />
<path
   d="m 266.305,105.168 0.153,0.932 c -0.297,0.063 -0.563,0.094 -0.797,0.094 -0.383,0 -0.68,-0.061 -0.891,-0.182 -0.211,-0.121 -0.359,-0.28 -0.445,-0.477 -0.086,-0.198 -0.129,-0.613 -0.129,-1.246 v -3.58 h -0.773 v -0.8199 h 0.773 v -1.541 l 1.049,-0.6329 v 2.1739 h 1.06 v 0.8199 h -1.06 v 3.639 c 0,0.301 0.018,0.494 0.055,0.58 0.038,0.086 0.098,0.154 0.182,0.205 0.084,0.051 0.204,0.076 0.36,0.076 0.118,0 0.272,-0.013 0.463,-0.041 z"
   opacity="1"
   fill="#000000"
   id="path328" />
<path
   d="m 271.397,105.344 c -0.39,0.332 -0.766,0.567 -1.128,0.703 -0.361,0.137 -0.749,0.205 -1.163,0.205 -0.683,0 -1.209,-0.167 -1.576,-0.501 -0.367,-0.334 -0.551,-0.76 -0.551,-1.28 0,-0.305 0.069,-0.583 0.208,-0.835 0.139,-0.252 0.32,-0.454 0.545,-0.606 0.225,-0.153 0.478,-0.268 0.759,-0.346 0.207,-0.055 0.519,-0.107 0.937,-0.158 0.852,-0.102 1.479,-0.223 1.881,-0.363 0.004,-0.145 0.006,-0.237 0.006,-0.276 0,-0.43 -0.1,-0.732 -0.299,-0.908 -0.269,-0.238 -0.67,-0.358 -1.201,-0.358 -0.496,0 -0.862,0.087 -1.099,0.261 -0.236,0.174 -0.411,0.482 -0.524,0.923 l -1.031,-0.141 c 0.094,-0.441 0.248,-0.797 0.463,-1.069 0.215,-0.271 0.525,-0.48 0.931,-0.6268 0.407,-0.1465 0.877,-0.2198 1.412,-0.2198 0.532,0 0.963,0.0625 1.295,0.1875 0.332,0.1251 0.577,0.2821 0.733,0.4721 0.156,0.189 0.265,0.428 0.328,0.717 0.035,0.18 0.053,0.504 0.053,0.973 v 1.406 c 0,0.981 0.022,1.601 0.067,1.861 0.045,0.259 0.134,0.508 0.267,0.747 h -1.102 c -0.109,-0.219 -0.18,-0.475 -0.211,-0.768 z m -0.088,-2.355 c -0.383,0.156 -0.957,0.289 -1.722,0.398 -0.434,0.063 -0.741,0.133 -0.92,0.211 -0.18,0.078 -0.319,0.192 -0.416,0.343 -0.098,0.15 -0.147,0.317 -0.147,0.501 0,0.281 0.107,0.515 0.319,0.703 0.213,0.187 0.525,0.281 0.935,0.281 0.406,0 0.768,-0.089 1.084,-0.266 0.316,-0.178 0.549,-0.421 0.697,-0.73 0.114,-0.238 0.17,-0.59 0.17,-1.055 z"
   opacity="1"
   fill="#000000"
   id="path330" />
<path
   d="m 273.999,106.112 v -6.2229 h 0.949 v 0.9429 c 0.242,-0.441 0.466,-0.732 0.671,-0.8726 0.205,-0.1406 0.43,-0.211 0.677,-0.211 0.355,0 0.716,0.1133 1.084,0.3396 l -0.364,0.979 c -0.258,-0.153 -0.515,-0.229 -0.773,-0.229 -0.231,0 -0.438,0.07 -0.621,0.208 -0.184,0.139 -0.315,0.331 -0.393,0.577 -0.117,0.375 -0.176,0.786 -0.176,1.231 v 3.258 z"
   opacity="1"
   fill="#000000"
   id="path332" />
<path
   d="m 280.309,105.168 0.153,0.932 c -0.297,0.063 -0.563,0.094 -0.797,0.094 -0.383,0 -0.68,-0.061 -0.891,-0.182 -0.211,-0.121 -0.359,-0.28 -0.445,-0.477 -0.086,-0.198 -0.129,-0.613 -0.129,-1.246 v -3.58 h -0.774 v -0.8199 h 0.774 v -1.541 l 1.049,-0.6329 v 2.1739 h 1.06 v 0.8199 h -1.06 v 3.639 c 0,0.301 0.018,0.494 0.055,0.58 0.037,0.086 0.098,0.154 0.182,0.205 0.084,0.051 0.204,0.076 0.36,0.076 0.118,0 0.272,-0.013 0.463,-0.041 z"
   opacity="1"
   fill="#000000"
   id="path334" />
</g><g
   opacity="1"
   id="g344"
   transform="translate(-217.12,-38.035544)">
<g
   id="g342">
<path
   stroke-linecap="butt"
   stroke-width="1"
   stroke="#000000"
   d="m 317.66,95.0343 c -1.547,0 -14.18,0 -14.18,0"
   fill="none"
   stroke-linejoin="round"
   id="path338" />
<path
   d="m 316.785,95.0342 -2.625,3.5 7,-3.4999 -7,-3.5001 z"
   fill="#000000"
   id="path340" />
</g>
</g><g
   opacity="1"
   id="g466"
   transform="translate(-217.12,-38.035544)">
<path
   d="m 335.937,89.9305 1.09,0.1347 c -0.172,0.6368 -0.49,1.1309 -0.955,1.4825 -0.465,0.3515 -1.058,0.5273 -1.781,0.5273 -0.91,0 -1.632,-0.2803 -2.165,-0.8408 -0.533,-0.5606 -0.8,-1.3467 -0.8,-2.3584 0,-1.0469 0.27,-1.8594 0.809,-2.4375 0.539,-0.5781 1.238,-0.8672 2.097,-0.8672 0.832,0 1.512,0.2832 2.039,0.8496 0.528,0.5664 0.791,1.3633 0.791,2.3906 0,0.0625 -0.002,0.1563 -0.006,0.2813 h -4.64 c 0.039,0.6836 0.232,1.207 0.58,1.5703 0.348,0.3633 0.781,0.5449 1.301,0.5449 0.386,0 0.717,-0.1015 0.99,-0.3047 0.273,-0.2031 0.49,-0.5273 0.65,-0.9726 z m -3.463,-1.7051 h 3.475 c -0.047,-0.5234 -0.18,-0.916 -0.398,-1.1777 -0.336,-0.4063 -0.772,-0.6094 -1.307,-0.6094 -0.484,0 -0.892,0.1621 -1.222,0.4863 -0.33,0.3242 -0.512,0.7578 -0.548,1.3008 z"
   opacity="1"
   fill="#000000"
   id="path444" />
<path
   d="m 337.648,91.9344 2.274,-3.2344 -2.104,-2.9883 h 1.319 l 0.955,1.459 c 0.179,0.2773 0.324,0.5098 0.433,0.6973 0.172,-0.2578 0.33,-0.4864 0.475,-0.6856 l 1.049,-1.4707 h 1.259 l -2.15,2.9297 2.314,3.293 h -1.294 l -1.278,-1.9336 -0.34,-0.5215 -1.634,2.4551 z"
   opacity="1"
   fill="#000000"
   id="path446" />
<path
   d="m 344.351,94.3191 v -8.6074 h 0.961 v 0.8086 c 0.227,-0.3164 0.483,-0.5537 0.768,-0.7119 0.285,-0.1582 0.631,-0.2373 1.037,-0.2373 0.531,0 1,0.1367 1.406,0.4102 0.407,0.2734 0.713,0.6591 0.92,1.1572 0.207,0.498 0.311,1.0439 0.311,1.6377 0,0.6367 -0.115,1.2099 -0.343,1.7197 -0.229,0.5098 -0.561,0.9004 -0.996,1.1719 -0.436,0.2715 -0.894,0.4072 -1.374,0.4072 -0.352,0 -0.667,-0.0742 -0.946,-0.2227 -0.28,-0.1484 -0.509,-0.3359 -0.689,-0.5625 v 3.0293 z m 0.955,-5.4609 c 0,0.8008 0.163,1.3926 0.487,1.7754 0.324,0.3828 0.717,0.5742 1.178,0.5742 0.468,0 0.87,-0.1982 1.204,-0.5947 0.334,-0.3965 0.501,-1.0108 0.501,-1.8428 0,-0.793 -0.163,-1.3867 -0.49,-1.7812 -0.326,-0.3946 -0.715,-0.5918 -1.169,-0.5918 -0.449,0 -0.846,0.2099 -1.192,0.6298 -0.346,0.42 -0.519,1.0303 -0.519,1.8311 z"
   opacity="1"
   fill="#000000"
   id="path448" />
<path
   d="m 355.285,89.9305 1.09,0.1347 c -0.172,0.6368 -0.49,1.1309 -0.955,1.4825 -0.465,0.3515 -1.059,0.5273 -1.781,0.5273 -0.911,0 -1.632,-0.2803 -2.166,-0.8408 -0.533,-0.5606 -0.799,-1.3467 -0.799,-2.3584 0,-1.0469 0.269,-1.8594 0.808,-2.4375 0.539,-0.5781 1.239,-0.8672 2.098,-0.8672 0.832,0 1.512,0.2832 2.039,0.8496 0.527,0.5664 0.791,1.3633 0.791,2.3906 0,0.0625 -0.002,0.1563 -0.006,0.2813 h -4.64 c 0.039,0.6836 0.232,1.207 0.58,1.5703 0.347,0.3633 0.781,0.5449 1.3,0.5449 0.387,0 0.717,-0.1015 0.991,-0.3047 0.273,-0.2031 0.49,-0.5273 0.65,-0.9726 z m -3.463,-1.7051 h 3.475 c -0.047,-0.5234 -0.18,-0.916 -0.399,-1.1777 -0.336,-0.4063 -0.771,-0.6094 -1.306,-0.6094 -0.485,0 -0.892,0.1621 -1.222,0.4863 -0.33,0.3242 -0.513,0.7578 -0.548,1.3008 z"
   opacity="1"
   fill="#000000"
   id="path450" />
<path
   d="m 357.687,91.9344 v -6.2227 h 0.95 v 0.9434 c 0.242,-0.4414 0.465,-0.7324 0.67,-0.8731 0.206,-0.1406 0.431,-0.2109 0.677,-0.2109 0.356,0 0.717,0.1133 1.084,0.3398 l -0.363,0.9786 c -0.258,-0.1524 -0.516,-0.2286 -0.774,-0.2286 -0.23,0 -0.437,0.0694 -0.621,0.208 -0.183,0.1387 -0.314,0.3311 -0.392,0.5772 -0.117,0.375 -0.176,0.7852 -0.176,1.2305 v 3.2578 z"
   opacity="1"
   fill="#000000"
   id="path452" />
<path
   d="m 363.998,90.991 0.152,0.9317 c -0.297,0.0625 -0.562,0.0937 -0.797,0.0937 -0.382,0 -0.679,-0.0605 -0.89,-0.1816 -0.211,-0.1211 -0.36,-0.2803 -0.446,-0.4776 -0.086,-0.1972 -0.128,-0.6123 -0.128,-1.2451 V 86.532 h -0.774 v -0.8203 h 0.774 v -1.541 l 1.048,-0.6328 v 2.1738 h 1.061 v 0.8203 h -1.061 v 3.6387 c 0,0.3008 0.019,0.4941 0.056,0.5801 0.037,0.0859 0.098,0.1543 0.182,0.2051 0.084,0.0507 0.204,0.0761 0.36,0.0761 0.117,0 0.271,-0.0136 0.463,-0.041 z"
   opacity="1"
   fill="#000000"
   id="path454" />
<path
   d="m 335.732,104.966 c -0.39,0.332 -0.766,0.566 -1.128,0.703 -0.361,0.136 -0.749,0.205 -1.163,0.205 -0.683,0 -1.209,-0.167 -1.576,-0.501 -0.367,-0.334 -0.551,-0.761 -0.551,-1.28 0,-0.305 0.07,-0.583 0.208,-0.835 0.139,-0.252 0.321,-0.454 0.545,-0.607 0.225,-0.152 0.478,-0.267 0.759,-0.346 0.207,-0.054 0.52,-0.107 0.938,-0.158 0.851,-0.101 1.478,-0.222 1.88,-0.363 0.004,-0.145 0.006,-0.236 0.006,-0.275 0,-0.43 -0.099,-0.733 -0.299,-0.909 -0.269,-0.238 -0.67,-0.357 -1.201,-0.357 -0.496,0 -0.862,0.087 -1.098,0.261 -0.237,0.174 -0.412,0.481 -0.525,0.923 l -1.031,-0.141 c 0.094,-0.441 0.248,-0.798 0.463,-1.069 0.215,-0.2719 0.525,-0.4809 0.931,-0.6274 0.407,-0.1464 0.877,-0.2197 1.413,-0.2197 0.531,0 0.962,0.0625 1.294,0.1875 0.333,0.125 0.577,0.2822 0.733,0.4716 0.156,0.19 0.266,0.429 0.328,0.718 0.035,0.18 0.053,0.504 0.053,0.973 v 1.406 c 0,0.98 0.022,1.6 0.067,1.86 0.045,0.26 0.134,0.509 0.267,0.747 h -1.102 c -0.109,-0.219 -0.179,-0.474 -0.211,-0.767 z m -0.088,-2.356 c -0.382,0.156 -0.957,0.289 -1.722,0.399 -0.434,0.062 -0.741,0.132 -0.92,0.211 -0.18,0.078 -0.319,0.192 -0.416,0.342 -0.098,0.151 -0.147,0.318 -0.147,0.501 0,0.282 0.107,0.516 0.32,0.703 0.213,0.188 0.524,0.282 0.934,0.282 0.406,0 0.768,-0.089 1.084,-0.267 0.317,-0.178 0.549,-0.421 0.697,-0.729 0.114,-0.239 0.17,-0.59 0.17,-1.055 z"
   opacity="1"
   fill="#000000"
   id="path456" />
<path
   d="m 340.648,104.79 0.153,0.931 c -0.297,0.063 -0.563,0.094 -0.797,0.094 -0.383,0 -0.68,-0.06 -0.891,-0.181 -0.211,-0.121 -0.359,-0.281 -0.445,-0.478 -0.086,-0.197 -0.129,-0.612 -0.129,-1.245 v -3.58 h -0.774 v -0.8205 h 0.774 v -1.541 l 1.049,-0.6328 v 2.1738 h 1.06 v 0.8205 h -1.06 v 3.639 c 0,0.3 0.018,0.494 0.055,0.58 0.038,0.086 0.098,0.154 0.182,0.205 0.084,0.05 0.204,0.076 0.36,0.076 0.118,0 0.272,-0.014 0.463,-0.041 z"
   opacity="1"
   fill="#000000"
   id="path458" />
<path
   d="m 349.273,103.729 1.09,0.135 c -0.172,0.637 -0.49,1.131 -0.955,1.482 -0.465,0.352 -1.059,0.528 -1.781,0.528 -0.91,0 -1.632,-0.28 -2.165,-0.841 -0.533,-0.561 -0.8,-1.347 -0.8,-2.358 0,-1.047 0.269,-1.86 0.809,-2.438 0.539,-0.578 1.238,-0.8671 2.097,-0.8671 0.832,0 1.512,0.2832 2.039,0.8501 0.528,0.566 0.791,1.363 0.791,2.39 0,0.063 -0.002,0.156 -0.006,0.281 h -4.64 c 0.039,0.684 0.232,1.207 0.58,1.571 0.348,0.363 0.781,0.545 1.301,0.545 0.386,0 0.716,-0.102 0.99,-0.305 0.273,-0.203 0.49,-0.527 0.65,-0.973 z m -3.463,-1.705 h 3.475 c -0.047,-0.523 -0.18,-0.916 -0.398,-1.178 -0.336,-0.406 -0.772,-0.609 -1.307,-0.609 -0.484,0 -0.892,0.162 -1.222,0.486 -0.33,0.325 -0.512,0.758 -0.548,1.301 z"
   opacity="1"
   fill="#000000"
   id="path460" />
<path
   d="m 351.687,105.733 v -6.2225 h 0.95 v 0.8845 c 0.457,-0.6833 1.117,-1.0251 1.98,-1.0251 0.375,0 0.72,0.0674 1.034,0.2022 0.315,0.1347 0.55,0.3115 0.706,0.5299 0.157,0.219 0.266,0.479 0.328,0.78 0.039,0.195 0.059,0.537 0.059,1.025 v 3.826 h -1.055 v -3.785 c 0,-0.43 -0.041,-0.751 -0.123,-0.964 -0.082,-0.213 -0.227,-0.383 -0.436,-0.51 -0.209,-0.127 -0.454,-0.19 -0.736,-0.19 -0.449,0 -0.837,0.143 -1.163,0.428 -0.326,0.285 -0.489,0.826 -0.489,1.623 v 3.398 z"
   opacity="1"
   fill="#000000"
   id="path462" />
<path
   d="m 362.398,105.733 v -0.785 c -0.394,0.617 -0.974,0.926 -1.74,0.926 -0.496,0 -0.952,-0.137 -1.368,-0.41 -0.416,-0.274 -0.738,-0.656 -0.967,-1.146 -0.228,-0.49 -0.343,-1.054 -0.343,-1.69 0,-0.621 0.104,-1.185 0.311,-1.691 0.207,-0.506 0.517,-0.893 0.931,-1.1628 0.415,-0.2695 0.877,-0.4043 1.389,-0.4043 0.375,0 0.709,0.0791 1.002,0.2373 0.293,0.1582 0.531,0.3643 0.715,0.6178 v -3.0816 h 1.049 v 8.5896 z m -3.334,-3.105 c 0,0.797 0.168,1.392 0.504,1.787 0.336,0.394 0.733,0.592 1.19,0.592 0.461,0 0.852,-0.189 1.174,-0.566 0.323,-0.377 0.484,-0.952 0.484,-1.725 0,-0.852 -0.164,-1.477 -0.492,-1.875 -0.328,-0.399 -0.733,-0.598 -1.213,-0.598 -0.469,0 -0.861,0.191 -1.175,0.574 -0.314,0.383 -0.472,0.987 -0.472,1.811 z"
   opacity="1"
   fill="#000000"
   id="path464" />
</g>
</svg>
